<?xml version="1.0" encoding="UTF-8" standalone="no"?>
<!-- Uploaded to: SVG Repo, www.svgrepo.com, Generator: SVG Repo Mixer Tools -->

<svg
   aria-label="Gmail"
   role="img"
   viewBox="0 0 512 512"
   version="1.1"
   id="svg5"
   sodipodi:docname="tray-icon-unread.svg"
   inkscape:version="1.3.2 (091e20ef0f, 2023-11-25)"
   inkscape:export-filename="tray-icon-unread-new.png"
   inkscape:export-xdpi="12"
   inkscape:export-ydpi="12"
   xmlns:inkscape="http://www.inkscape.org/namespaces/inkscape"
   xmlns:sodipodi="http://sodipodi.sourceforge.net/DTD/sodipodi-0.dtd"
   xmlns="http://www.w3.org/2000/svg"
   xmlns:svg="http://www.w3.org/2000/svg">
  <defs
     id="defs5" />
  <sodipodi:namedview
     id="namedview5"
     pagecolor="#ffffff"
     bordercolor="#000000"
     borderopacity="0.25"
     inkscape:showpageshadow="2"
     inkscape:pageopacity="0.0"
     inkscape:pagecheckerboard="0"
     inkscape:deskcolor="#d1d1d1"
     inkscape:zoom="1.5605469"
     inkscape:cx="256.3204"
     inkscape:cy="254.71839"
     inkscape:window-width="1920"
     inkscape:window-height="1048"
     inkscape:window-x="0"
     inkscape:window-y="0"
     inkscape:window-maximized="1"
     inkscape:current-layer="svg5" />
  <rect
     width="512"
     height="512"
     rx="15%"
     fill="#ffffff"
     id="rect1"
     style="fill:none;fill-opacity:1" />
  <path
     d="M 129.93562,420.39674 V 232.73095 L 22.888611,149.47078 v 231.27827 q 0,39.64769 39.163538,39.64769"
     fill="#4285f4"
     id="path1"
     style="stroke-width:1.3135" />
  <path
     d="M 124.71381,231.40937 257.86983,333.17181 391.02587,231.40937 V 101.89356 L 257.86983,203.65598 124.71381,101.89356"
     fill="#ea4335"
     id="path2"
     style="stroke-width:1.3135" />
  <path
     d="M 385.80407,420.39674 V 232.73095 l 107.047,-83.26017 v 231.27827 q 0,39.64769 -39.16353,39.64769"
     fill="#34a853"
     id="path3"
     style="stroke-width:1.3135" />
  <path
     d="M 22.888611,152.11396 129.93562,235.37413 V 105.85831 L 90.772082,75.461741 c -35.247188,-27.753387 -67.883471,0 -67.883471,34.361339"
     fill="#c5221f"
     id="path4"
     style="stroke-width:1.3135" />
  <path
     d="m 492.85107,152.11396 -107.047,83.26017 V 105.85831 L 424.9676,75.461741 c 35.24719,-27.753387 67.88347,0 67.88347,34.361339"
     fill="#fbbc04"
     id="path5"
     style="stroke-width:1.3135" />
</svg>
